<svg width="350" height="64" viewBox="0 0 350 64" fill="none" xmlns="http://www.w3.org/2000/svg">
    <path fill-rule="evenodd" clip-rule="evenodd" d="M0.5 64H48.5V0H0.5V64Z" fill="#F03E3E"/>
    <path fill-rule="evenodd" clip-rule="evenodd" d="M17.869 49.498C17.197 50.5579 16.4539 51.7242 14.9682 52.7843C13.5535 53.7741 11.7495 54.4454 9.66194 54.4454C6.12475 54.4454 0.5 52.3252 0.5 44.7978C0.5 39.4264 3.61282 34.903 9.76826 34.903C11.8201 34.903 15.3224 35.4686 17.6566 39.3202L13.6242 41.6175C13.3057 40.9459 12.9522 40.31 12.0673 39.6738C11.5371 39.3202 10.8646 39.0379 10.0159 39.0379C7.07981 39.0379 6.08931 42.395 6.08931 44.6212C6.08931 47.0596 7.29222 50.134 10.1926 50.134C10.4759 50.134 11.8201 50.134 12.9522 48.8621C13.4118 48.3317 13.5887 47.9075 13.7655 47.3778L17.869 49.498Z" fill="#FEFEFE"/>
    <path fill-rule="evenodd" clip-rule="evenodd" d="M23.4584 44.0911C23.4584 45.6459 23.5645 48.8621 26.9249 48.8621C29.684 48.8621 30.3208 46.7058 30.3208 44.0911C30.3208 43.2075 30.2501 41.3699 29.6488 40.4866C29.224 39.815 28.2339 39.0726 26.6773 39.1437C24.0949 39.2497 23.4584 41.4759 23.4584 44.0911ZM30.3559 51.406C29.2945 52.1132 27.9857 52.9609 25.4742 52.9609C23.9533 52.9609 22.4675 52.5724 21.2648 51.7594C18.7886 50.1691 17.8335 47.307 17.8335 44.1265C17.8335 40.4158 19.5667 35.0796 25.6867 35.0796C28.5164 35.0796 29.8252 36.3163 30.639 37.0936V35.3622H35.733V53.1025C35.6623 55.1168 35.5915 57.4846 32.9026 59.0397C31.0279 60.1704 28.2692 60.4531 26.6065 60.4531C22.9276 60.4531 20.5222 59.1808 19.5312 58.1564C18.0813 56.7072 18.1166 54.8344 18.1166 53.8447H23.7409C23.8115 54.6574 23.8826 55.8237 25.3329 56.495C25.6867 56.6718 26.2173 56.8484 27.0663 56.8484C30.3559 56.8484 30.3559 54.905 30.3559 53.3849V51.406Z" fill="#FEFEFE"/>
    <path fill-rule="evenodd" clip-rule="evenodd" d="M36.1283 33.736C36.1274 33.7355 36.1267 33.7353 36.1267 33.7353C36.122 33.7353 36.1211 33.7353 36.1283 33.736Z" fill="#FFD300"/>
    <path fill-rule="evenodd" clip-rule="evenodd" d="M3.20813 33.196C3.20835 33.1958 3.2097 33.1933 3.2097 33.1933C3.20274 33.1824 3.19938 33.1792 3.20813 33.196Z" fill="#FFD300"/>
    <path fill-rule="evenodd" clip-rule="evenodd" d="M39.5146 29.8469H44.9269V35.3626H48.3019V39.1436H44.8917V47.4481C44.856 48.5791 44.856 49.5332 46.3061 49.5332L48.2517 49.4626V53.7032C47.0842 53.8803 46.377 53.986 45.3872 53.986C43.5114 53.986 41.4599 53.8803 40.2927 52.1833C39.55 51.088 39.5146 49.7806 39.5146 48.0137V39.1085H36.8257V35.3579H39.5146V29.8469Z" fill="#FEFEFE"/>
    <path fill-rule="evenodd" clip-rule="evenodd" d="M36.181 33.7355C36.1801 33.7355 36.1801 33.736 36.1794 33.736C36.1864 33.736 36.1851 33.736 36.181 33.7355Z" fill="#FFD300"/>
    <path fill-rule="evenodd" clip-rule="evenodd" d="M20.1187 20.5935V20.5962C20.1382 20.5805 20.1332 20.5836 20.1187 20.5935Z" fill="#FFD300"/>
    <path fill-rule="evenodd" clip-rule="evenodd" d="M19.9883 20.759C19.9851 20.7866 20.0172 20.7559 19.9883 20.759V20.759Z" fill="#FFD300"/>
    <path fill-rule="evenodd" clip-rule="evenodd" d="M12.0616 25.893C12.0856 25.8193 12.0987 25.7588 12.113 25.6362L12.1899 25.6102C12.1908 25.6102 12.2772 25.6539 12.3187 25.6362C12.3292 25.6311 12.3124 25.571 12.3187 25.5589C12.3234 25.5479 12.4145 25.5188 12.4216 25.5074C12.438 25.4792 12.4326 25.3803 12.4216 25.4048L12.6693 24.9683C12.6724 24.9588 12.7938 24.7984 12.7969 24.7899L12.8597 24.6588C12.9884 24.4878 12.8667 24.4381 12.9366 24.2216C12.9555 24.1625 13.0905 24.1038 13.1423 24.0677L13.1941 24.119C13.1665 23.9393 13.1618 23.8716 13.2969 23.7849C13.2987 23.7934 13.3197 23.9117 13.3229 23.9135C13.3749 23.9393 13.4023 23.8759 13.4258 23.8875C13.4328 23.7813 13.5043 23.6623 13.5369 23.6137C13.5321 23.62 13.5286 23.6247 13.5207 23.635C13.7221 23.3737 13.6865 23.2005 13.7087 23.039C13.8406 23.039 13.8112 23.0963 13.863 22.9101C14.1295 22.9892 14.1151 22.8848 14.0178 22.6789C14.1205 22.6298 14.0436 22.5502 14.0436 22.5502C14.1221 22.5368 14.1873 22.6219 14.2753 22.602C14.3136 22.5924 14.2753 22.5249 14.2753 22.5249C14.2607 22.5825 14.2234 22.4734 14.2234 22.4734C14.2234 22.4734 14.3257 22.319 14.3266 22.319C14.3459 22.3304 14.367 22.4006 14.378 22.4216C14.3827 22.4185 14.4809 22.3448 14.4809 22.3448C14.4823 22.3385 14.5581 22.2421 14.5581 22.2421C14.5978 22.0698 14.6088 21.8924 14.6355 21.779C14.6355 21.779 14.6732 21.8359 14.6871 21.8303C14.707 21.8832 14.7369 21.9405 14.7642 22.0107C14.7819 22.0042 14.8405 21.9838 14.8412 21.9849C14.8766 21.8343 14.8907 21.6777 14.9185 21.4709C14.973 21.472 14.9506 21.4032 15.0217 21.4193C15.0217 21.4193 15.1092 21.4868 15.1247 21.4962C15.1357 21.461 15.1215 21.4312 15.1502 21.3676C15.174 21.3676 15.2635 21.3797 15.279 21.3676C15.2927 21.355 15.279 21.2618 15.279 21.2394C15.357 21.2096 15.3209 21.2609 15.3561 21.1876L15.176 21.0848C15.266 21.035 15.3932 21.0173 15.4849 20.9562C15.5822 20.8896 15.5979 20.6884 15.6906 20.6223C15.7511 20.577 15.8249 20.6068 15.8967 20.5708C15.992 20.5206 16.0407 20.3581 16.1028 20.3135C16.1966 20.2436 16.3155 20.2707 16.3855 20.1849C16.453 20.0995 16.3798 20.0303 16.4633 19.9534C16.529 19.89 16.6068 19.9245 16.6948 19.8761C16.8298 19.8002 16.8957 19.5575 17.0806 19.4394C17.2165 19.3516 17.1178 19.4226 17.1579 19.2595C17.1579 19.2595 17.2192 19.2077 17.1835 19.2077C17.2883 19.1499 17.3668 19.19 17.441 19.1564C17.4915 19.1324 17.4995 19.0148 17.5437 18.9762C17.5639 18.9578 17.622 18.9877 17.6471 18.9762C17.6644 18.9677 17.655 18.8873 17.6727 18.8736C17.7064 18.8438 17.7683 18.8758 17.8012 18.8476C17.8409 18.8122 17.8293 18.7181 17.8786 18.6934C17.9446 18.6589 18.0282 18.6968 18.0843 18.6677C18.133 18.6421 18.2862 18.4647 18.3678 18.4107C18.3618 18.3995 18.3301 18.3672 18.3418 18.3591C18.3685 18.3389 18.4407 18.3728 18.4705 18.3591C18.5035 18.3434 18.5374 18.205 18.5735 18.1794C18.6583 18.1167 18.7657 18.1375 18.8568 18.0763C18.8954 18.0492 18.8756 17.9645 18.9337 17.9477C18.9692 17.9367 19.0311 17.9645 19.0625 17.9477C19.1206 17.9148 19.1199 17.8065 19.1654 17.7676C19.3388 17.621 19.4711 17.766 19.6804 17.5105C19.8291 17.5531 19.7769 17.5598 19.9379 17.5105C20.1629 17.824 19.9247 18.1615 19.8092 18.4622C19.7567 18.5964 19.7479 18.7044 19.6804 18.8216C19.6293 18.9088 19.5162 18.9877 19.4743 19.0791C19.4083 19.2214 19.422 19.3148 19.3455 19.4394C19.3078 19.4994 19.2038 19.5568 19.1654 19.6193C19.1262 19.6809 19.134 19.7677 19.0885 19.8248C19.0432 19.8786 18.9169 19.8907 18.8824 19.9534C18.8561 19.9989 18.888 20.0829 18.8568 20.1336C18.8173 20.1954 18.7603 20.1381 18.7022 20.1849C18.6639 20.2147 18.7029 20.2653 18.6762 20.3135C18.6621 20.3375 18.5896 20.3424 18.5735 20.3648C18.5185 20.4385 18.5268 20.5232 18.4705 20.5963C18.4248 20.6534 18.2597 20.7112 18.2391 20.7762C18.2218 20.8244 18.2492 20.8822 18.2391 20.9306C18.2045 20.9288 18.1063 20.9033 18.0585 20.9306C18.0282 20.9472 18.0298 21.0525 18.0074 21.0848C17.9878 21.1103 17.7837 21.2488 17.7759 21.2649C17.7153 21.3754 17.7669 21.4601 17.6727 21.5475C17.5834 21.6295 17.5567 21.5491 17.4666 21.599C17.3692 21.6524 17.3307 21.8877 17.2349 21.9589C17.1564 22.0169 17.0308 21.9974 16.9518 22.0615C16.8738 22.1236 16.88 22.3121 16.7975 22.3708C16.7549 22.3992 16.6806 22.3714 16.643 22.3963C16.5418 22.4613 16.5173 22.6695 16.4115 22.7306C16.3117 22.7869 16.204 22.7264 16.1028 22.7819C16.0721 22.7981 16.0777 22.8969 16.051 22.9101C16.029 22.9209 15.9366 22.8911 15.9223 22.9101C15.9014 22.9363 15.9328 23.0076 15.9223 23.039C15.9207 23.0421 15.748 23.2158 15.7424 23.2189C15.6309 23.2778 15.5643 23.2265 15.4331 23.2962C15.3938 23.317 15.3342 23.4087 15.3043 23.4248C15.1859 23.4869 15.0924 23.4488 15.0217 23.5534C14.9553 23.6482 14.963 23.7495 14.893 23.8362C14.8533 23.8828 14.7447 23.9126 14.7124 23.9648C14.6974 23.9879 14.7055 24.0531 14.6871 24.0677C14.4841 24.2163 14.493 23.9686 14.4038 24.2989C14.3836 24.2969 14.2842 24.2817 14.2737 24.2754C14.2434 24.3182 14.1597 24.4137 14.1205 24.4529C13.9671 24.6059 13.8215 24.6895 13.7087 24.8903C13.8136 24.8381 13.8756 24.8244 13.9662 24.7617L13.8888 24.8647L13.863 24.8903C13.852 24.8961 13.83 25.0037 13.8121 25.0189C13.7179 25.0915 13.5647 25.0713 13.4772 25.1475C13.4696 25.1529 13.4772 25.2125 13.4772 25.2248C13.3354 25.297 13.224 25.4505 13.0912 25.5074C12.9373 25.5717 13.1603 25.3658 13.2455 25.3277L13.2711 25.2248C13.1872 25.2777 12.8942 25.3467 12.8597 25.4048C12.8007 25.5011 12.8761 25.5298 12.8337 25.6102C12.8189 25.638 12.7686 25.6526 12.7442 25.6584C12.7426 25.6609 12.7388 25.662 12.731 25.6615C12.7305 25.6615 12.7357 25.6604 12.7442 25.6584C12.7529 25.6468 12.667 25.606 12.6022 25.6362C12.573 25.649 12.5701 25.7252 12.5504 25.7389C12.4098 25.8323 12.3203 25.8594 12.113 25.9446C12.113 25.9625 12.1233 26.0644 12.113 26.0734C12.0962 26.0604 12.0558 26.0138 12.0359 26.0221C12.0477 25.9802 12.0448 25.9416 12.0616 25.893ZM48.0297 31.0421C47.9703 31.0446 47.9144 31.0495 47.8649 31.0614C47.8501 31.0649 47.829 31.1328 47.8133 31.1387C47.7314 31.1678 47.4152 31.2122 47.3759 31.216C47.1781 31.2326 47.0022 31.1387 46.7582 31.1387C46.7755 31.2529 46.7611 31.3049 46.8349 31.4215C46.7956 31.4105 46.7171 31.4367 46.6804 31.4215C46.6326 31.4006 46.6223 31.2283 46.4487 31.3446C46.4285 31.3571 46.422 31.4403 46.3977 31.4474C46.3419 31.462 46.3937 31.4387 46.3719 31.4215L45.8058 31.3446L45.754 31.2928C45.7029 31.2969 45.6966 31.311 45.6771 31.3188C45.579 31.354 45.6558 31.3663 45.5999 31.4215H45.5483C45.5286 31.4105 45.5483 31.3188 45.5483 31.3188C45.4572 31.2969 45.3983 31.4062 45.3424 31.4215C45.2522 31.4441 45.1589 31.3831 45.0073 31.3961C44.8054 31.412 44.53 31.4936 44.3645 31.5761C44.3221 31.5422 44.2842 31.5124 44.2355 31.4732C44.2247 31.4826 44.0549 31.7047 44.0549 31.7047C44.0096 31.7242 43.9452 31.6666 44.004 31.6787C44.0015 31.661 44.0448 31.5243 44.004 31.5243C43.95 31.5234 43.95 31.5929 43.9264 31.6269C43.8313 31.5761 43.7284 31.5292 43.6178 31.6269C43.6036 31.6397 43.6115 31.698 43.5918 31.7047C43.4796 31.7383 43.6059 31.5646 43.463 31.6016C43.3908 31.6204 43.317 31.7262 43.2573 31.756C43.1562 31.8051 43.0642 31.8042 42.9489 31.8333C42.9505 31.8273 42.996 31.7638 42.974 31.756C42.9536 31.7477 42.9166 31.7681 42.8971 31.756C42.8491 31.816 42.8413 31.862 42.7941 31.9359C42.7392 31.9238 42.6685 31.9359 42.6136 31.9359C42.6167 31.8851 42.6136 31.8313 42.6136 31.7815C42.6999 31.7847 42.558 31.7392 42.5367 31.7302C42.477 31.8541 42.4904 31.8322 42.5106 31.9615C42.4936 31.9615 42.4465 31.9689 42.4339 31.9615C42.4339 31.9615 42.287 31.9819 42.2022 31.9872C42.2933 31.9353 42.2314 31.95 42.2534 31.8846L42.331 31.8333C42.3256 31.8322 42.243 31.7862 42.2282 31.7815C42.1935 31.8837 42.1473 32.0565 41.9447 32.0388C41.7124 32.0179 41.9589 31.8371 41.6363 31.9872V32.1414C41.6307 32.1432 41.2759 32.0901 41.2759 32.0901C41.2485 32.067 41.2611 32.0153 41.2241 31.9872C41.1754 32.0195 41.1032 32.1506 41.0442 32.1674C40.8535 32.2194 40.7389 32.1215 40.5803 32.1674C40.5716 32.169 40.6023 32.2104 40.6061 32.2187C40.5341 32.2422 40.4729 32.2922 40.3746 32.27C40.337 32.2615 40.3746 32.1674 40.3746 32.1674C40.3354 32.1513 40.1234 32.1398 40.1171 32.1414V32.1674C40.1171 32.1674 39.9695 32.2348 39.8854 32.2443L39.8596 32.3733C39.7834 32.4116 39.6484 32.2967 39.551 32.296C39.5142 32.2951 39.4741 32.3733 39.4741 32.3733C39.1343 32.4695 38.8844 32.4347 38.547 32.4755C38.4708 32.4847 38.2447 32.5931 38.1615 32.6041C38.0036 32.6238 37.8091 32.6373 37.7234 32.6041C37.6647 32.581 37.6913 32.4912 37.5435 32.5015C37.4321 32.5084 37.3378 32.6355 37.2602 32.6561C37.1425 32.6857 36.9469 32.7012 36.874 32.7074C36.7161 32.7204 36.6338 32.6655 36.5396 32.6041C36.5286 32.6149 36.5135 32.7327 36.5135 32.7327C36.446 32.7457 36.3675 32.6395 36.2561 32.6561C36.2545 32.6561 36.1901 32.7298 36.1791 32.7327C36.0573 32.765 35.8472 32.7838 35.742 32.7845C35.5062 32.7845 35.2857 32.7327 35.0471 32.7587C34.7716 32.787 34.6413 32.8968 34.3773 32.9129C34.3091 32.9165 34.0642 32.8506 33.9402 32.8616C33.8498 32.8685 33.7612 33.0023 33.6827 33.0155C33.5005 33.0458 33.5382 32.912 33.374 32.9387C33.3451 32.9427 33.3552 33.0093 33.3482 33.0413C33.1464 33.0229 32.7601 33.1446 32.6529 32.9647C32.6338 32.9754 32.626 33.0536 32.6529 33.0675C32.4392 33.0675 32.2871 33.1273 32.1126 33.1188C31.9908 33.1117 31.8517 33.1117 31.6752 33.0675C31.6333 33.0568 31.5897 32.9674 31.5718 32.9647C31.4047 32.9281 31.2053 33.0406 31.0315 33.0413H30.774C30.774 33.0413 30.7331 32.9241 30.697 32.9129C30.6129 32.8858 30.5102 32.9653 30.4395 32.9647C30.3971 32.9635 30.3559 32.8905 30.3366 32.8874C30.0663 32.8356 30.1648 33.0319 29.9764 33.0155C29.9764 33.0155 29.678 32.8889 29.8216 32.9129C29.8191 32.9066 29.7713 32.8452 29.796 32.8356C29.6897 32.8513 29.6457 32.8452 29.5387 32.8616C29.5394 32.867 29.5645 32.99 29.5645 32.99C29.5024 32.9994 29.3584 32.8874 29.3584 32.8874C29.205 32.8582 29.334 32.9458 29.2036 32.9387C29.0424 32.9281 28.9006 32.778 28.7923 32.7074C28.7438 32.7395 28.7263 32.7509 28.6638 32.7845C28.6274 32.6904 28.5718 32.607 28.5348 32.5273C28.3749 32.5649 28.2524 32.4984 28.0716 32.4755C28.0635 32.4435 28.0747 32.3794 28.0458 32.3733C27.9307 32.3467 27.957 32.4441 27.8401 32.3986C27.8094 32.3865 27.7376 32.2526 27.7114 32.2443C27.665 32.2301 27.6062 32.283 27.5308 32.27C27.453 32.2564 27.4884 32.1705 27.4797 32.1674C27.444 32.1528 27.3839 32.1851 27.3509 32.1674C27.3395 32.1611 27.3487 32.074 27.3251 32.0645C27.3038 32.0556 27.2054 32.1282 27.1195 32.013C27.1006 31.989 27.106 31.9736 27.0934 31.9359C27.0934 31.9359 27.0708 31.8741 27.0421 31.8333C27.0614 31.8685 27.0881 31.769 27.0421 31.7302C26.9584 31.6587 26.9066 31.7078 26.8099 31.7047C26.8328 31.6859 26.7882 31.6388 26.7846 31.6269C26.8086 31.6175 26.8353 31.6269 26.8617 31.6269C26.8207 31.4436 26.7637 31.46 26.7332 31.3961C26.6428 31.2086 26.6181 30.933 26.6042 30.7533C26.5529 30.7497 26.5015 30.7338 26.4497 30.7275C26.4842 30.5986 26.4952 30.5659 26.5784 30.496C26.5408 30.3781 26.3649 30.1424 26.3986 30.0073C26.4152 29.9385 26.4795 29.9455 26.5275 29.9047C26.4443 29.7286 26.4497 29.6842 26.5784 29.5957C26.5699 29.5686 26.5183 29.4756 26.5275 29.442C26.5307 29.4263 26.6484 29.338 26.6558 29.3133C26.6783 29.2277 26.6181 29.2103 26.6303 29.1334C26.6359 29.0922 26.7126 28.9658 26.7332 28.9015C26.7097 28.8806 26.5529 28.6702 26.5529 28.6702C26.5087 28.6519 26.4143 28.6929 26.3728 28.6702C26.3672 28.6671 26.3759 28.6028 26.3728 28.5934C26.3313 28.4854 26.201 28.5087 26.0897 28.5161C26.0697 28.4816 26.0478 28.3745 26.0123 28.3621C25.9435 28.3368 25.985 28.5882 25.9865 28.5934C25.784 28.6227 25.6866 28.642 25.5747 28.7473C25.3715 28.9369 25.3544 29.4122 25.265 29.6815L25.0341 29.956C25.0158 29.9667 24.9556 29.9898 24.9314 30.0073C24.9534 30.1577 24.9644 30.248 24.854 30.3156C24.6232 30.4564 24.6515 30.2482 24.6226 30.2388C24.5887 30.2278 24.5499 30.2533 24.5196 30.2388C24.5196 30.2388 24.4783 30.3224 24.4682 30.3416C24.5106 30.3699 24.5221 30.3522 24.5712 30.3674C24.5647 30.3835 24.5452 30.4443 24.5452 30.4443C24.5212 30.4277 24.4682 30.4564 24.4422 30.4443C24.4312 30.4389 24.4229 30.3634 24.4164 30.3416C24.4007 30.347 24.2836 30.3876 24.3135 30.3932C24.2632 30.4402 24.1863 30.5682 24.1338 30.5986C24.078 30.6293 24.0934 30.5603 24.0304 30.5729C23.91 30.5973 23.8267 30.8552 23.7989 30.9847C23.757 30.9706 23.6845 31.0011 23.6446 30.9847C23.6388 30.9823 23.6446 30.9153 23.6446 30.9074C23.6446 30.9074 23.6372 30.7721 23.4641 30.8043C23.4432 30.8075 23.3564 30.8985 23.3353 30.9074C23.2678 30.9321 23.1626 30.8976 23.0783 30.933C23.0056 30.9619 22.9172 31.1364 22.8463 31.1902C22.7301 30.9628 22.6703 31.0663 22.5377 31.1902C22.2551 30.9646 21.7612 31.2796 21.4566 31.0614C21.3722 31.0011 21.3796 30.7275 21.3796 30.7275C21.3761 30.7105 21.39 30.6215 21.3539 30.65C21.4653 30.5572 21.4496 30.4662 21.5337 30.3416C21.5611 30.2993 21.6623 30.2784 21.6883 30.2388C21.7291 30.1738 21.6988 30.094 21.7396 30.0333C21.7542 30.0104 21.8323 30.0066 21.8428 29.9815C21.8594 29.9385 21.8296 29.8726 21.8428 29.8274C21.8628 29.8289 21.9305 29.8603 21.9716 29.8787C22.0855 29.7165 22.2057 29.6898 22.3576 29.5701C22.4513 29.4948 22.5231 29.3651 22.6146 29.2873C22.755 29.1659 22.9208 29.1067 23.0783 29.0043C23.1601 28.9506 23.2261 28.8231 23.3097 28.7731C23.3373 28.7565 23.3808 28.7834 23.4129 28.7731C23.519 28.7361 23.6273 28.5898 23.7216 28.5416C23.9781 28.4074 24.2123 28.3823 24.5196 28.2844C24.6845 28.231 25.0126 28.0643 25.2149 28.0274C25.4527 27.9832 25.7196 28.009 25.8838 27.976C25.9504 27.9624 26.0085 27.8813 26.1153 27.8987C26.1521 27.9048 26.1718 27.9962 26.1927 28.0016C26.2324 28.0106 26.3214 27.9471 26.3728 27.9503C26.471 27.9561 26.5989 28.0843 26.6814 28.1047C26.7339 28.1168 26.807 28.0744 26.8873 28.1047V28.1302C26.9553 28.1665 27.0165 28.1981 27.0934 28.2333C27.0934 28.2405 27.0881 28.3086 27.0934 28.3101C27.2316 28.3536 27.3097 28.2505 27.5308 28.3361C27.5127 28.3247 27.4467 28.2411 27.4279 28.2333C27.4005 28.2734 27.4021 28.1815 27.4021 28.1815C27.4247 28.1607 27.5236 28.1047 27.5308 28.0789C27.5535 27.9864 27.4869 27.7349 27.4539 27.616C27.4104 27.4625 27.1704 27.2819 27.1704 27.2819C27.1704 27.2648 27.1807 27.1877 27.1704 27.1788C27.1493 27.1588 27.0692 27.1909 27.0421 27.1788C27.0033 27.162 27.0421 27.0977 27.0165 27.0762C26.9647 27.0325 26.6453 26.8317 26.6042 26.8189C26.4033 26.7546 26.2676 26.8333 26.0383 26.8189C25.952 26.8133 25.8338 26.7176 25.729 26.7161C25.6842 26.7154 25.5846 26.7891 25.5491 26.7934C25.3078 26.8189 25.0779 26.794 24.8027 26.8702C24.7603 26.8817 24.6997 26.9643 24.6739 26.9729C24.5526 27.0103 24.4494 26.9565 24.3395 26.9989C24.2852 27.0192 24.2444 27.142 24.3135 27.1535C24.0948 27.2247 24.0026 27.3126 23.7734 27.3847C23.763 27.348 23.7812 27.2931 23.7476 27.2819H23.6958C23.6655 27.358 23.5488 27.6 23.4641 27.616C23.4378 27.6209 23.1509 27.5075 23.1038 27.4873C23.1381 27.5534 23.1464 27.5848 23.1814 27.6417C22.9686 27.711 22.7127 27.7495 22.5635 27.6675C22.5393 27.8804 22.59 27.9698 22.5377 28.1815C22.3262 28.1423 22.0279 28.4188 21.9716 28.0534C21.9464 28.1867 21.9254 28.2136 21.7657 28.2588C21.7502 28.4717 21.7464 28.7933 21.5337 28.8762C21.5097 28.8851 21.4503 28.8591 21.4308 28.8762C21.3027 28.9855 21.4606 29.0133 21.2509 28.9788C21.2419 29.0032 21.2435 29.0523 21.2251 29.0561C21.2251 29.0561 21.2926 29.1067 21.2765 29.1074C21.1394 29.1112 21.1859 29.0012 21.1222 28.9532C21.0916 28.9658 21.0273 28.9532 20.9934 28.9532L20.9676 29.0814C20.8907 29.1146 20.4118 29.063 20.3497 29.0561C20.1832 29.0359 19.8389 29.0671 19.655 29.1334C19.6395 29.1374 19.618 29.2062 19.6034 29.2103C19.5332 29.2286 19.5045 29.1771 19.3975 29.2103V29.236C19.3213 29.2752 19.088 29.2968 19.0371 29.3642C19.0187 29.388 19.0315 29.4514 19.011 29.4675C18.9435 29.5188 18.8538 29.5004 18.7796 29.5446C18.7771 29.5455 18.754 29.6219 18.754 29.6219C18.5793 29.7236 18.281 29.7593 18.1365 29.8787C18.1008 29.9078 18.0809 29.9936 18.0589 30.0333C17.777 29.9607 17.87 30.0732 17.6985 30.1361C17.5901 30.1745 17.4685 30.1409 17.3384 30.2128C17.3257 30.2197 17.3003 30.2861 17.2871 30.2901C17.1121 30.3345 17.0374 30.2975 16.8495 30.3674L16.875 30.5729L16.7979 30.5473C16.7979 30.5473 16.7746 30.4044 16.7721 30.3932C16.7721 30.3932 16.6961 30.418 16.6952 30.4187C16.6754 30.6067 16.7297 30.6148 16.5404 30.5729C16.5451 30.5892 16.5765 30.6717 16.5664 30.6762C16.4386 30.7138 16.2591 30.6204 16.2062 30.6246C16.1618 30.6271 16.1573 30.6914 16.1288 30.7015C16.057 30.725 15.9722 30.6838 15.8971 30.7015C15.8688 30.7069 15.761 30.8003 15.717 30.8043C15.658 30.8093 15.6196 30.762 15.5364 30.7788C15.3346 30.818 15.086 31.0208 14.8676 31.0614C14.7482 31.0835 14.6213 31.0286 14.4553 31.0614C14.3039 31.0905 14.0706 31.2399 13.941 31.2415C13.8634 31.2424 13.8502 31.1783 13.7604 31.1902C13.7559 31.1902 13.697 31.263 13.6835 31.2673C13.5989 31.2897 13.1882 31.278 13.1171 31.2673C13.1035 31.265 13.0281 31.1909 13.0144 31.1902C12.8657 31.1747 12.7776 31.2698 12.6279 31.2673C12.6048 31.2662 12.499 31.1945 12.4739 31.1902C12.2736 31.1555 12.2092 31.1945 11.9847 31.1387C11.9847 31.1308 11.9894 31.0623 11.9847 31.0614C11.9102 31.0383 11.803 31.0759 11.7272 31.0614C11.5553 31.0277 11.4096 30.851 11.29 30.7533C11.2584 30.7275 11.1796 30.7129 11.161 30.6762C11.1233 30.602 11.1722 30.5216 11.1352 30.4443C11.1085 30.3898 10.9688 30.2856 10.9296 30.1875C10.9728 30.1559 10.9296 30.0588 10.9296 30.0588C10.9497 30.0588 10.9553 29.8018 10.9553 29.8018C11.0621 29.5791 10.9695 29.4482 11.161 29.3642C11.1305 29.2338 11.1227 29.2286 11.161 29.0814C11.1258 29.0899 11.1195 29.1182 11.0583 29.1074C11.083 29.0241 11.2608 28.6357 11.3153 28.5934C11.3503 28.5651 11.432 28.5958 11.4697 28.5676L11.4957 28.4388C11.7395 28.3561 11.7186 28.229 11.9077 28.0789C11.9557 28.0397 12.0113 28.0675 12.062 28.0274C12.1112 27.987 12.108 27.8813 12.1648 27.8474C12.25 27.7952 12.3451 27.8176 12.422 27.7706C12.5138 27.7125 12.5028 27.6106 12.5766 27.5389C12.658 27.4584 12.8139 27.4506 12.937 27.4103C12.937 27.3549 12.9254 27.2843 12.937 27.2303C13.0366 27.2003 13.1669 27.1992 13.1945 27.1788C13.203 27.1718 13.1945 27.0907 13.1945 27.0762C13.3531 26.9888 13.4395 26.9211 13.6063 26.8447C13.5996 26.827 13.5808 26.7674 13.5808 26.7674C13.6586 26.6648 13.8331 26.6847 13.7091 26.5874C13.6774 26.5619 13.6835 26.5101 13.6835 26.5101C13.8093 26.4725 13.8845 26.4573 13.9921 26.4075C13.989 26.4019 13.9607 26.3578 13.9666 26.356C14.0731 26.3197 14.1805 26.3761 14.3014 26.2789C14.3705 26.222 14.4019 26.0965 14.4813 26.0474C14.5071 26.0306 14.5668 26.0436 14.5841 26.0221C14.6213 25.9737 14.5885 25.9013 14.6359 25.8675C14.7646 25.7738 14.918 25.7727 15.0477 25.6876C15.1345 25.6286 15.2036 25.5428 15.3047 25.4821C15.2984 25.4639 15.2794 25.4048 15.2794 25.4048C15.346 25.3405 15.4265 25.3797 15.5109 25.3277C15.5407 25.3084 15.4853 25.2762 15.4853 25.2762C15.5752 25.2134 15.5898 25.1979 15.6396 25.096C15.7049 25.096 15.7071 25.1381 15.7679 25.096C15.7679 25.0953 15.6903 25.0005 15.7939 24.9676C16.1079 24.8663 15.7338 25.2401 15.6652 25.3019C15.8834 25.1988 15.9227 25.1146 16.1802 25.096C16.2775 24.8717 16.3082 24.7753 16.4637 24.6588C16.4549 24.6429 16.4262 24.6236 16.4377 24.6075C16.4439 24.5965 16.5341 24.5667 16.5404 24.5562C16.6299 24.3854 16.5633 24.3754 16.7461 24.299C16.7461 24.299 16.6532 24.2588 16.6694 24.2474C16.699 24.2248 16.7642 24.2651 16.7979 24.2474C16.8057 24.2429 16.8203 24.1311 16.8239 24.119C16.9244 24.1033 16.9621 24.132 17.0296 24.0677C17.0572 24.0404 17.0336 23.9702 17.0556 23.9393C17.076 23.9073 17.1639 23.897 17.1839 23.8618C17.2557 23.73 17.1976 23.6529 17.2871 23.579C17.3492 23.5261 17.4347 23.5557 17.4928 23.5017C17.5051 23.4898 17.4858 23.4416 17.4928 23.4248C17.5141 23.3684 17.8093 23.1508 17.879 23.0647C17.9559 23.0784 17.9714 23.084 18.0589 23.0907C18.0706 23.0473 18.0401 22.9798 18.0589 22.9363L18.0847 22.9101C18.2473 22.8534 18.2197 22.7154 18.2904 22.6789C18.3657 22.639 18.4902 22.6804 18.5225 22.6789C18.577 22.5312 18.6196 22.5057 18.754 22.4476C18.6389 22.3582 18.8776 22.1111 18.9341 22.0107C18.9931 22.053 18.99 22.0508 19.0629 22.0875L19.1142 21.9849C19.1548 21.8146 19.1068 21.8359 19.2685 21.779C19.2432 21.5744 19.3612 21.4978 19.6034 21.4449C19.6117 21.3911 19.5819 21.3138 19.6034 21.265C19.6155 21.2367 19.7075 21.2352 19.7322 21.2134C19.7923 21.1583 19.9125 20.8536 19.9125 20.8536L19.8865 20.802C19.9439 20.7713 19.9735 20.761 19.9876 20.759C19.9901 20.7444 20.0018 20.7124 20.0413 20.6476C20.0413 20.6476 20.0933 20.6104 20.1182 20.5936V20.5708C20.1534 20.5416 20.2927 20.5033 20.2987 20.4935C20.3557 20.3794 20.2822 20.3144 20.2727 20.2618C20.2846 20.2515 20.3364 20.2692 20.3497 20.2618C20.3564 20.258 20.3443 20.1954 20.3497 20.1849C20.3963 20.0877 20.5574 20.0233 20.6332 20.005C20.617 19.9575 20.6464 19.9597 20.659 19.9277C20.6377 19.91 20.5558 19.8248 20.5558 19.8248C20.6417 19.8472 20.8671 19.346 20.9162 19.1822C20.8662 19.1548 20.8599 19.1853 20.8389 19.1309C20.9813 19.1403 21.1749 19.1465 21.1222 18.9249L21.0964 18.8736C21.1486 18.821 21.3168 18.7488 21.3539 18.6935C21.4768 18.5081 21.39 18.0815 21.3796 17.8962C21.3696 17.7331 21.4575 17.4014 21.4308 17.3049C21.4189 17.2641 21.3088 17.2007 21.302 17.1765C21.2659 17.0485 21.3859 16.977 21.2765 16.9194C21.2345 16.8968 21.143 16.8728 21.1222 16.8681C21.0995 16.6721 21.0979 16.6315 20.9416 16.6109C20.9835 16.5038 20.9788 16.4823 21.019 16.405C20.827 16.3328 20.8992 16.258 20.8128 16.1995C20.768 16.1677 20.7698 16.2288 20.7359 16.225C20.696 16.2203 20.6217 16.1309 20.5811 16.1224C20.3977 16.0809 20.1574 16.0715 19.9639 16.0964C19.7304 16.1253 19.3998 16.271 19.14 16.3794C19.0691 16.4081 18.9265 16.545 18.8572 16.5591C18.7749 16.5748 18.7466 16.5074 18.6508 16.5336C18.5127 16.5712 18.2626 17.083 18.1107 17.1765C18.0533 17.2107 18.0055 17.1677 17.982 17.1765C17.8837 17.2107 17.8963 17.3476 17.8272 17.4082C17.7628 17.4626 17.6679 17.435 17.5957 17.485C17.5509 17.5146 17.532 17.6015 17.4928 17.6394C17.434 17.6927 17.3499 17.6878 17.2871 17.7422C17.2007 17.8155 17.1913 17.9766 17.1065 18.0508C17.028 18.1176 16.9291 18.1176 16.8495 18.1794C16.6983 18.295 16.5821 18.4909 16.4377 18.6161C16.4078 18.6415 16.3273 18.663 16.3089 18.6935C16.2937 18.7174 16.3017 18.8178 16.2571 18.8736C16.2084 18.933 16.0232 19.0107 16.0001 19.0791C15.987 19.1127 16.0185 19.1795 16.0001 19.2077C15.9662 19.2559 15.9195 19.1967 15.8715 19.2335C15.8583 19.2422 15.8561 19.3444 15.8457 19.3621C15.7845 19.4593 15.593 19.5104 15.5109 19.5936C15.4516 19.6523 15.4878 19.7253 15.4335 19.799C15.3927 19.8539 15.3346 19.8073 15.2794 19.8508C15.267 19.8593 15.2852 19.9115 15.2794 19.9277C15.2493 20.0041 15.041 20.0579 14.9963 20.1336C14.9571 20.1979 14.9947 20.2288 14.9703 20.2618C14.9405 20.3014 14.9288 20.2797 14.8676 20.2875C14.8095 20.4614 14.6132 20.5954 14.7906 20.6989C14.6265 20.7209 14.5699 20.7731 14.4042 20.7762C14.3542 20.8798 14.3674 20.9723 14.3014 21.0595C14.249 21.126 14.1915 21.0817 14.1209 21.1361C14.0493 21.1912 14.0679 21.2856 14.0182 21.3676C13.9246 21.5179 13.7221 21.6524 13.6319 21.8048C13.6153 21.8323 13.5597 22.1088 13.5547 22.1135C13.5404 22.1263 13.4482 22.1135 13.4262 22.1135C13.365 22.2554 13.3793 22.2966 13.2205 22.319C13.2107 22.3656 13.2331 22.3802 13.2459 22.4216C13.1371 22.5032 13.0994 22.5715 13.0144 22.6789C12.9754 22.7264 12.8303 22.782 12.8083 22.8335C12.7697 22.9209 12.8294 23.0103 12.8601 23.1418C12.7942 23.166 12.747 23.1707 12.6795 23.1934C12.6795 23.2012 12.6845 23.268 12.6795 23.2707C12.6279 23.2908 12.5268 23.1996 12.4739 23.3475C12.4294 23.4683 12.4848 23.5629 12.4996 23.6563C12.2608 23.726 12.1903 23.6874 12.1394 23.9649C12.1159 23.9655 12.0161 23.9906 11.9847 23.9906C11.9824 24.0047 11.9847 24.1961 11.9847 24.1961C11.9847 24.1961 11.8631 24.3135 11.8559 24.3247C11.8559 24.3247 11.7648 24.4663 11.8819 24.4276C11.8763 24.45 11.8411 24.5737 11.8559 24.582C11.5585 24.4341 11.3429 25.0938 11.187 25.3535C11.1754 25.3698 11.0928 25.3781 11.0839 25.4048C11.0715 25.4361 11.0998 25.5067 11.0839 25.5334C11.0561 25.5757 10.9924 25.5511 10.9553 25.5847C10.9213 25.6138 10.8156 25.8106 10.8008 25.8419C10.7227 25.993 10.7564 26.1079 10.8522 26.202C10.692 26.157 10.6359 26.1684 10.5433 26.3302C10.4051 26.5713 10.3392 26.81 10.2089 27.0762C10.1595 27.175 10.0382 27.27 10.0027 27.3847C9.96888 27.4923 10.0142 27.5812 9.9774 27.693C9.95677 27.7511 9.75423 27.8958 9.7457 27.8987C9.85404 27.8548 9.89486 27.8497 9.9774 27.7961C9.99624 27.7824 10.0371 27.7267 10.0541 27.7188C10.1885 27.6561 10.0718 27.7706 10.1315 27.7961C10.0292 27.8369 9.83879 27.8965 10.0283 27.9503C9.89553 28.0419 9.79191 28.1264 9.6423 28.2075C9.6423 28.2234 9.65217 28.3007 9.6423 28.3101C9.62727 28.3231 9.53531 28.3101 9.514 28.3101C9.48417 28.3769 9.49606 28.3899 9.46219 28.4388C9.43953 28.4309 9.39153 28.4092 9.38525 28.413C9.41755 28.4403 9.34645 28.5082 9.43639 28.4903C9.42922 28.4993 9.38256 28.5658 9.38525 28.5676C9.32178 28.5573 9.31281 28.5443 9.25651 28.5161C9.23071 28.5737 9.23385 28.5376 9.17912 28.5676C9.17912 28.5889 9.19303 28.7081 9.17912 28.722C9.15692 28.7419 9.12776 28.696 9.12776 28.696C9.04544 28.696 8.7377 28.9369 8.66458 28.9788C8.62735 28.9987 8.56813 28.9772 8.53583 29.0043C8.51946 29.0176 8.53112 29.0937 8.51004 29.1074C8.42795 29.1596 8.34742 29.1298 8.27834 29.1847C8.23976 29.2145 8.14421 29.3678 8.14959 29.3642V29.4162C8.18503 29.4247 8.30436 29.4675 8.30436 29.4675C8.17942 29.5242 7.62899 29.7086 7.58368 29.7761C7.57808 29.7823 7.55453 29.932 7.53187 29.9815C7.11266 29.9921 7.32843 30.1102 7.09449 30.2128C6.9617 30.2701 6.93053 30.2446 6.83699 30.3156C6.88342 30.3979 6.86929 30.4171 6.91393 30.496C6.48686 30.5588 6.52813 30.794 6.24507 30.8301C6.27804 30.9305 6.26346 30.9368 6.29643 31.0356C6.23677 31.0607 6.19168 31.0331 6.14211 31.0614C6.12103 31.0721 6.08088 31.1846 6.06451 31.1902C6.03737 31.1985 5.74892 31.1328 5.88462 31.2415C5.91064 31.2624 5.91064 31.2415 5.91064 31.2415C6.02593 31.2812 6.1374 31.2796 5.98757 31.3701C5.85793 31.4474 5.68522 31.4418 5.55019 31.4988C5.85725 31.6771 5.41471 31.6269 5.39565 31.6269H5.36963C5.28955 31.6572 5.23774 31.8358 5.16395 31.8846C5.15856 31.8878 4.79969 32.0587 4.7777 32.0645C4.71647 32.0787 4.62899 32.041 4.57202 32.0645C4.52469 32.0823 4.60881 32.1719 4.52021 32.2187C4.55901 32.214 4.61038 32.1811 4.64896 32.1674C4.53591 32.3892 4.61688 32.4363 4.28873 32.5528C4.35625 32.5528 4.28873 32.296 4.28873 32.296C4.25868 32.2734 4.27684 32.2584 4.26271 32.2187C4.21314 32.238 4.09068 32.3184 4.05703 32.3213C3.89374 32.3328 4.01868 32.156 3.77397 32.3733C3.60529 32.5219 3.44111 32.7619 3.25942 32.8874C3.27198 32.9304 3.29554 32.9458 3.28499 32.99C3.14907 33.0135 3.16208 32.994 3.20761 33.0155C3.25785 33.0391 3.20604 33.0794 3.25942 33.0928C3.25942 33.0928 3.21613 33.1784 3.20918 33.1928C3.22398 33.2152 3.25942 33.2732 3.25942 33.2732C3.26638 33.3171 3.22712 33.3431 3.20761 33.3761C3.42742 33.3951 3.38817 33.4682 3.31034 33.6331C3.23587 33.6026 3.31236 33.7406 3.33636 33.6844C3.4918 33.7543 3.46354 33.8065 3.38817 33.9674C3.47049 34.0393 3.47879 34.0104 3.54249 34.07C3.54249 34.07 3.5241 34.114 3.4909 34.0958C3.48866 34.1007 3.46511 34.172 3.46511 34.1729C3.5223 34.194 3.59296 34.217 3.61965 34.2246C3.61965 34.2246 3.56469 34.28 3.59385 34.3013C3.66137 34.3528 3.73516 34.325 3.82533 34.3528C3.85606 34.2858 3.86234 34.2112 3.87714 34.1729C4.13262 34.1438 4.16335 34.1745 4.18578 33.9674C4.22256 33.969 4.26025 33.9921 4.26271 33.9927C4.20843 33.9721 4.2109 34.0936 4.34055 34.07C4.4103 34.0573 4.73127 33.8191 4.80372 33.7615C4.80215 33.7583 4.76896 33.714 4.7777 33.7102C4.87281 33.666 4.89793 33.7131 4.95782 33.6586C4.99841 33.6214 4.94638 33.5912 4.95782 33.5815C4.88559 33.5968 4.87976 33.6082 4.80372 33.6073C4.80978 33.5863 4.82952 33.53 4.82952 33.53C4.92103 33.5439 4.96297 33.5728 5.06122 33.5556C5.16552 33.5374 5.17583 33.4254 5.24088 33.3761C5.40574 33.2472 5.62331 33.2206 5.78189 33.0928C5.79669 33.0803 5.79198 33.0014 5.80724 32.99C5.87161 32.9402 5.95056 32.9611 6.01337 32.9129C6.0995 32.8452 6.15086 32.7171 6.24507 32.6561C6.31954 32.6059 6.42092 32.6324 6.50256 32.5788C6.56111 32.5382 6.59318 32.3901 6.65666 32.3473C6.75266 32.2824 6.85112 32.2886 6.93995 32.2187C7.12589 32.0702 7.13531 31.9494 7.35198 31.8333C7.35198 31.8333 7.34682 31.7063 7.35198 31.6787C7.42735 31.6906 7.3881 31.7253 7.48073 31.7302C7.49643 31.7302 7.42892 31.6283 7.42892 31.6269C7.57606 31.572 7.60993 31.5149 7.71221 31.4474C7.83176 31.367 7.98383 31.3733 8.09778 31.2928L8.22697 31.1902C8.2355 31.1709 8.2115 31.099 8.22697 31.0874C8.27273 31.0481 8.32746 31.0701 8.38129 31.0356C8.52103 30.9426 8.49075 30.8292 8.71572 30.7788C8.70787 30.7757 8.71572 30.6874 8.71572 30.6762C8.63699 30.6728 8.56499 30.6762 8.48402 30.6762C8.48963 30.6576 8.51004 30.5986 8.51004 30.5986C8.66862 30.5767 8.70944 30.5995 8.8189 30.6246C8.84604 30.5505 8.90884 30.4525 9.02503 30.4187C9.05441 30.4088 9.12933 30.4348 9.15378 30.4187C9.16701 30.4088 9.11183 30.3322 9.10196 30.3156C9.25897 30.2518 9.33905 30.2049 9.514 30.1361C9.50974 30.1391 9.514 30.2099 9.514 30.2128C9.54585 30.1816 9.53957 30.2388 9.53957 30.2388C9.51804 30.254 9.44985 30.3183 9.43639 30.3416L9.41082 30.4443C9.45277 30.4342 9.47363 30.4124 9.514 30.3932C9.50301 30.4792 9.42451 30.8944 9.48821 31.0874L9.59094 31.1129C9.5934 31.1718 9.61696 31.2989 9.61696 31.3188C9.61449 31.3686 9.55482 31.4167 9.56514 31.4474C9.57927 31.4905 9.70174 31.5149 9.71991 31.5761C9.75109 31.6859 9.68043 31.8281 9.71991 31.9359C9.75512 32.0332 9.93972 32.0148 10.0283 32.0645C10.1299 32.1206 10.1775 32.2992 10.2858 32.3473C10.3533 32.3769 10.3549 32.303 10.4146 32.3213C10.4146 32.3213 10.4397 32.398 10.4406 32.3986C10.9174 32.3986 11.3921 32.592 11.9077 32.5273C12.0459 32.5093 12.1787 32.4455 12.3709 32.4242C12.3709 32.4224 12.3965 32.3473 12.3965 32.3473C12.6152 32.2763 12.6869 32.3258 12.937 32.27C13.0108 32.2532 13.134 32.132 13.1945 32.1156C13.2347 32.1047 13.3127 32.1345 13.3488 32.1156C13.3746 32.1015 13.439 31.95 13.5808 31.9359C13.8717 31.9046 14.1146 32.004 14.3784 31.9615C14.4266 31.9536 14.6085 31.851 14.6619 31.8588C14.6736 31.8604 14.7693 31.9447 14.7906 31.9615C14.8169 31.8701 14.8393 31.8113 14.8676 31.7302C14.9939 31.7461 15.1078 31.7905 15.2794 31.7302C15.2899 31.7262 15.3198 31.6545 15.3307 31.6534C15.3967 31.6379 15.5086 31.704 15.6396 31.6534C15.6975 31.6298 15.7531 31.5212 15.8197 31.4988C15.885 31.4757 16.0505 31.5212 16.1802 31.4732C16.2075 31.4627 16.2477 31.3571 16.2829 31.3446C16.3627 31.3139 16.6936 31.4015 16.7979 31.3701C16.8293 31.3603 16.8899 31.203 16.9266 31.1902C17.0208 31.1564 17.2642 31.1871 17.364 31.1647C17.4107 31.1532 17.5556 31.0118 17.5957 31.01C17.6215 31.0085 17.7408 31.0638 17.8016 31.0874C17.8209 31.0575 17.8548 30.9426 17.879 30.933C17.9528 30.9023 18.0589 30.95 18.1365 30.933C18.1798 30.9227 18.2473 30.8422 18.2904 30.8301C18.3615 30.8093 18.3913 30.8666 18.4451 30.8559C18.4458 30.8552 18.4451 30.7851 18.4451 30.7788C18.5494 30.749 18.6939 30.7548 18.8314 30.7275C18.833 30.7266 18.8982 30.6533 18.9083 30.65C19.0409 30.602 19.083 30.6679 19.2176 30.6246C19.2867 30.602 19.3789 30.4333 19.4493 30.4187C19.5844 30.3889 19.6799 30.4599 19.8607 30.4187C20.0819 30.8223 19.8964 31.147 20.1698 31.4732C20.2492 31.5678 20.3802 31.5525 20.4528 31.6016C20.4816 31.6209 20.4683 31.6628 20.4784 31.7047C20.6563 31.7486 20.7774 31.8571 20.9162 31.8846L21.5079 32.0388C21.6062 32.0607 21.5956 31.9185 21.6883 31.9102C21.7455 31.9046 21.656 31.972 21.7141 31.9872C21.791 32.0074 21.8594 31.9736 21.9458 31.9615C21.9426 31.9698 21.8931 32.0233 21.9198 32.0388H21.9716L22.1775 32.013L22.2288 31.8846C22.4042 31.8772 22.7517 31.9214 23.0009 31.8846C23.0484 31.8772 23.2373 31.7878 23.2844 31.7815C23.3887 31.7654 23.5284 31.808 23.5928 31.8075C23.6709 31.8051 23.864 31.7199 23.9533 31.7047C24.0266 31.6906 24.0214 31.7477 24.082 31.7302C24.0858 31.7284 24.082 31.6603 24.082 31.6534C24.4501 31.6043 24.3025 31.5035 24.5712 31.3446C24.6378 31.4329 24.7044 31.5292 24.854 31.4732C24.8991 31.4553 24.9 31.3999 24.9314 31.3701C24.863 31.3596 24.8395 31.367 24.8027 31.3701C24.959 31.3027 25.1073 31.151 25.3432 31.1387C25.2418 31.0728 25.2643 31.0401 25.2916 30.9074C25.3145 30.9074 25.376 30.9195 25.3946 30.9074C25.3915 30.9838 25.4045 31.0623 25.3946 31.1902C25.3874 31.1902 25.3177 31.1886 25.3177 31.1902C25.4406 31.3011 25.2172 31.4176 25.4206 31.5243C25.3852 31.5837 25.3545 31.6265 25.3177 31.7047C25.3459 31.7179 25.4134 31.7047 25.4464 31.7047C25.5478 31.8909 25.439 31.7665 25.6263 31.8588C25.6245 31.8604 25.594 31.9077 25.6007 31.9102C25.6474 31.9245 25.5162 31.9055 25.4464 31.8846C25.4583 31.9061 25.4973 31.9872 25.4973 31.9872C25.5915 31.9944 25.7526 31.9754 25.7808 31.9872L25.736 32.121C25.736 32.121 25.9497 32.3666 25.9352 32.3733C25.8892 32.3913 25.8374 32.3892 25.8066 32.3986C25.9551 32.4293 25.9594 32.4708 25.9352 32.6041C25.9888 32.5743 26.0437 32.5689 26.0897 32.5528C26.0897 32.5506 26.0854 32.4784 26.0897 32.4755C25.9049 32.2998 26.1451 32.4399 26.1927 32.6301C26.2189 32.6368 26.2999 32.6368 26.3214 32.6561C26.3295 32.6631 26.3162 32.722 26.3214 32.7327C26.3398 32.7818 26.5291 32.8921 26.5784 32.9129C26.6594 32.947 26.7615 32.9151 26.8359 32.9647C26.8447 32.97 26.8359 33.0527 26.8359 33.0675C26.9158 33.0913 26.949 33.0897 27.0421 33.1188C27.0392 33.1226 27.0102 33.1692 27.0165 33.1701C27.1112 33.1829 27.0773 33.0834 27.2482 33.1188C27.2661 33.122 27.1704 33.1701 27.1704 33.1701C27.398 33.325 27.4131 33.2387 27.6596 33.1959C27.4853 33.2434 27.6297 33.3102 27.737 33.3501C27.7982 33.3729 27.9224 33.383 27.9689 33.4274C27.9743 33.4328 27.9944 33.53 27.9944 33.53C28.1833 33.6046 28.2798 33.4426 28.4321 33.5042C28.4352 33.5054 28.3861 33.5728 28.3802 33.5815C28.4092 33.6066 28.4312 33.632 28.4576 33.6586C28.4949 33.6297 28.5301 33.5784 28.5608 33.5556L29.0051 33.7196L29.6673 33.7615C29.6765 33.7344 29.6935 33.6741 29.7189 33.6586C29.7581 33.6956 29.7431 33.731 29.7707 33.7873C30.021 33.8018 30.0524 33.8236 30.2848 33.8388C30.4409 33.8484 30.651 33.7944 30.7998 33.8388C30.7998 33.8388 30.8504 33.9407 30.8518 33.9414C30.8713 33.9477 30.8955 33.8923 31.0575 33.9414C31.0635 33.9121 31.0575 33.8419 31.0833 33.8388C31.0864 33.8379 31.2598 33.8861 31.3403 33.8901C31.3067 33.8802 31.4318 33.8612 31.4435 33.8646V33.9156C31.6234 33.9013 31.712 33.874 31.8295 33.8388C31.8667 33.9271 31.8824 33.9618 31.9069 34.0187C32.0049 33.9963 32.1337 33.9874 32.2411 33.9414C32.2411 33.9414 32.2954 33.8442 32.3701 33.8388C32.4313 33.8332 32.5733 33.9351 32.6276 33.9414C32.7464 33.9544 33.0201 33.8715 33.1935 33.8901C33.2148 33.8917 33.3097 33.9502 33.3482 33.9414C33.3844 33.9329 33.396 33.8442 33.451 33.8388C33.4783 33.8354 33.7053 33.9459 33.7345 33.9414C33.7509 33.9383 33.8256 33.815 33.8372 33.8128C33.9684 33.7799 33.9527 33.8984 34.0689 33.8646C34.0994 33.8547 34.0429 33.7615 34.0429 33.7615C34.0705 33.7512 34.1129 33.759 34.1198 33.7359C34.1983 33.7631 34.2683 33.8518 34.4033 33.8646C34.5133 33.8749 34.6232 33.796 34.6866 33.7873C34.7447 33.7783 34.9042 33.8388 34.9183 33.8388C34.9928 33.8372 35.1413 33.7642 35.201 33.7615C35.277 33.7577 35.3995 33.8159 35.5103 33.8128C35.6226 33.809 35.8541 33.7767 35.9734 33.7615L35.9995 33.6844C36.0136 33.6804 36.099 33.7234 36.1266 33.7353C36.1376 33.7353 36.1697 33.7353 36.1807 33.7355C36.414 33.7003 36.5293 33.6517 36.771 33.6844L36.7971 33.5815C36.8614 33.5735 36.9124 33.6983 37.0027 33.6844C37.0285 33.6795 36.9776 33.5815 36.9776 33.5815C37.2069 33.6418 37.2587 33.6082 37.389 33.4787C37.4195 33.4955 37.4872 33.461 37.5177 33.4787C37.5231 33.4818 37.5177 33.569 37.5177 33.5815C37.5184 33.5815 37.5947 33.6073 37.5947 33.6073C37.6198 33.5936 37.6308 33.4977 37.6976 33.4787L38.0327 33.5042C38.0531 33.5054 38.1002 33.563 38.1615 33.5556L38.2124 33.4787C38.262 33.465 38.4519 33.4787 38.5728 33.4787C38.5728 33.4641 38.565 33.3532 38.5728 33.3501C38.6096 33.3333 38.6756 33.3761 38.6756 33.3761C38.6756 33.3761 38.7047 33.461 38.8303 33.4532C39.0093 33.4404 39.1042 33.3469 39.2935 33.3761C39.2646 33.3348 39.2323 33.2867 39.2166 33.2472C39.2307 33.2392 39.2599 33.2566 39.2426 33.2215C39.2816 33.236 39.3541 33.2215 39.3965 33.2215C39.3965 33.2387 39.387 33.3447 39.3965 33.3501C39.42 33.3317 39.4741 33.3646 39.4992 33.3501C39.5055 33.3463 39.4992 33.2596 39.4992 33.2472C39.6021 33.2804 39.7199 33.3286 39.7827 33.3243C39.9319 33.3124 39.9359 33.1863 40.0142 33.1701C40.179 33.1347 40.0001 33.2522 40.2459 33.1188C40.457 33.2575 40.4453 33.163 40.6321 33.1446C40.7506 33.1325 40.8165 33.2078 40.9666 33.1959C41.2137 33.1753 41.2821 33.0888 41.5585 33.0675V32.99C41.6646 32.9685 41.6433 33.0527 41.713 33.0413L41.739 32.9647C41.9353 32.9485 41.9629 32.9635 42.0735 33.0155C42.0813 32.9992 42.1096 32.9165 42.1246 32.9129C42.3749 32.8517 42.5658 32.9626 42.6914 32.9387V32.8874C42.747 32.8889 42.8327 32.8849 42.8971 32.8874L42.9489 32.7845C43.0564 32.7619 43.0635 32.8582 43.0777 32.8616C43.1254 32.8721 43.3697 32.8497 43.463 32.8356C43.6978 32.8006 44.1579 32.7525 44.3645 32.6561C44.3903 32.6431 44.4248 32.532 44.4412 32.5273C44.5607 32.4905 44.6816 32.5909 44.7505 32.6301C44.7269 32.51 44.6964 32.467 44.9044 32.4242C44.9053 32.4341 44.9337 32.6003 44.9304 32.5788C44.9824 32.5804 45.0221 32.638 45.1361 32.6041C45.1495 32.6003 45.0851 32.5528 45.0851 32.5528C45.1509 32.5403 45.1706 32.5403 45.2139 32.5273C45.198 32.4968 45.1618 32.4242 45.1618 32.4242C45.3489 32.3619 45.3929 32.5199 45.4196 32.5273C45.4712 32.5407 45.5458 32.5273 45.5999 32.5273C45.5829 32.5161 45.6401 32.5067 45.5999 32.4755C45.3873 32.3128 45.8614 32.43 46.0113 32.4242C45.9579 32.3744 45.9767 32.3859 45.9597 32.3213C46.0005 32.3213 46.0521 32.3337 46.0884 32.3213C46.0884 32.3431 46.0743 32.4623 46.0884 32.4755C46.1064 32.4677 46.1481 32.4755 46.166 32.4755L46.1402 32.296C46.1402 32.296 46.2407 32.3744 46.269 32.4242C46.2243 32.4356 46.254 32.5015 46.3206 32.4755C46.4285 32.4332 46.3845 32.4002 46.5265 32.4755C46.5987 32.3697 46.6371 32.3169 46.6804 32.2443C46.7061 32.2929 46.9206 32.4531 47.1442 32.3733C47.1442 32.3733 47.336 32.1457 47.3499 32.1414C47.5675 32.0661 47.7803 32.1493 47.9678 32.0645C48.0046 32.1215 48.0143 32.1665 48.0448 32.2187L48.0297 31.0421Z" fill="#FAB005"/>
    <text x="60" y="30" font-family="Syne, sans-serif" font-size="22" font-weight="800" fill="#E8233A">ArianeGroup</text>
    <text x="60" y="52" font-family="DM Sans, sans-serif" font-size="16" font-weight="400" fill="#AAAAAA">Issac Brest Biscarosse</text>
</svg>
